<svg width="20" height="20" viewBox="0 0 20 20" fill="none" xmlns="http://www.w3.org/2000/svg">
<path d="M16.955 16.4917L14.3403 13.8982C15.3552 12.6327 15.8467 11.0265 15.7138 9.40975C15.5808 7.79303 14.8334 6.28869 13.6253 5.20608C12.4173 4.12346 10.8403 3.54486 9.21873 3.58923C7.59715 3.6336 6.05419 4.29758 4.90713 5.44464C3.76007 6.5917 3.09609 8.13465 3.05172 9.75623C3.00735 11.3778 3.58596 12.9548 4.66857 14.1628C5.75119 15.3709 7.25552 16.1183 8.87225 16.2513C10.489 16.3842 12.0952 15.8927 13.3607 14.8778L15.9542 17.4713C16.0197 17.5374 16.0977 17.5898 16.1836 17.6256C16.2694 17.6614 16.3616 17.6798 16.4546 17.6798C16.5476 17.6798 16.6397 17.6614 16.7256 17.6256C16.8115 17.5898 16.8895 17.5374 16.955 17.4713C17.082 17.3399 17.153 17.1643 17.153 16.9815C17.153 16.7988 17.082 16.6231 16.955 16.4917ZM9.40695 14.8778C8.43123 14.8778 7.47742 14.5885 6.66613 14.0464C5.85485 13.5043 5.22253 12.7338 4.84913 11.8324C4.47574 10.9309 4.37804 9.93899 4.5684 8.98201C4.75875 8.02503 5.22861 7.146 5.91855 6.45606C6.60849 5.76611 7.48753 5.29626 8.4445 5.1059C9.40148 4.91555 10.3934 5.01325 11.2949 5.38664C12.1963 5.76003 12.9668 6.39235 13.5089 7.20364C14.051 8.01492 14.3403 8.96874 14.3403 9.94446C14.3403 11.2529 13.8205 12.5077 12.8954 13.4329C11.9702 14.358 10.7154 14.8778 9.40695 14.8778Z" fill="black"/>
</svg>
