<svg width="15" height="17" viewBox="0 0 15 17" fill="none" xmlns="http://www.w3.org/2000/svg">
<path fill-rule="evenodd" clip-rule="evenodd" d="M4.66554 13.7176H1.35871C0.780507 13.7176 0.311783 13.2489 0.311783 12.6707V11.9875C0.311783 11.5919 0.468911 11.2126 0.748599 10.933C1.47113 10.2104 1.87704 9.23042 1.87704 8.20862V5.89134C1.87704 2.8657 4.32981 0.412933 7.35544 0.412933C10.3811 0.412933 12.8338 2.8657 12.8338 5.89134V8.20862C12.8338 9.23042 13.2398 10.2104 13.9623 10.933C14.242 11.2126 14.3991 11.5919 14.3991 11.9875V12.6707C14.3991 13.2489 13.9304 13.7176 13.3522 13.7176H10.0453C10.0453 13.9966 10.0363 14.5287 9.75569 15.0382C9.2912 15.8813 8.39133 16.4568 7.35544 16.4568C6.31948 16.4568 5.41965 15.8813 4.95521 15.0382C4.67458 14.5287 4.66554 13.9966 4.66554 13.7176ZM13.1322 11.763C13.1917 11.8226 13.2252 11.9033 13.2252 11.9875V12.5437H1.48573V11.9875C1.48573 11.9033 1.51917 11.8226 1.5787 11.763C2.52139 10.8203 3.05098 9.54175 3.05098 8.20862V5.89134C3.05098 3.51405 4.97816 1.58688 7.35544 1.58688C9.73276 1.58688 11.6599 3.51405 11.6599 5.89134V8.20862C11.6599 9.54175 12.1895 10.8203 13.1322 11.763ZM8.8714 13.7176H5.83949C5.83949 13.9775 5.85812 14.2442 5.9835 14.4718C6.07092 14.6306 6.18518 14.7725 6.32011 14.8916C6.59598 15.1351 6.9585 15.2829 7.35544 15.2829C7.75239 15.2829 8.11483 15.1351 8.39079 14.8916C8.52571 14.7725 8.6399 14.6306 8.72739 14.4718C8.85277 14.2442 8.8714 13.9775 8.8714 13.7176Z" fill="black"/>
</svg>
